<?xml version="1.0" encoding="UTF-8" standalone="no"?>
<!-- Created with Inkscape (http://www.inkscape.org/) -->

<svg
   width="82.214478mm"
   height="82.214478mm"
   viewBox="0 0 82.214478 82.214478"
   version="1.1"
   id="svg1"
   xmlns="http://www.w3.org/2000/svg"
   xmlns:svg="http://www.w3.org/2000/svg">
  <defs
     id="defs1" />
  <g
     id="layer1"
     transform="translate(-54.303039,-27.544906)">
    <path
       style="fill:none;fill-opacity:1;stroke:#000000;stroke-width:6.21898;stroke-opacity:1"
       id="path3"
       d="m 122.27874,95.520612 c -8.41292,8.412928 -4.86882,-4.846766 -15.86084,-0.293723 -10.99202,4.553043 0.89005,11.423001 -11.007622,11.423001 -11.897673,1e-5 -0.0156,-6.869958 -11.007618,-11.423 -10.992019,-4.553043 -7.44792,8.70665 -15.860848,0.293722 -8.412926,-8.412926 4.846766,-4.868829 0.293723,-15.860846 -4.553043,-10.992019 -11.423005,0.890055 -11.423006,-11.00762 -10e-7,-11.897674 6.869962,-0.0156 11.423005,-11.007619 4.553043,-10.992019 -8.706649,-7.44792 -0.293722,-15.860848 8.412926,-8.412926 4.868828,4.846766 15.860846,0.293723 10.992019,-4.553043 -0.890055,-11.423005 11.00762,-11.423006 11.897672,0 0.0156,6.869962 11.007622,11.423005 10.99202,4.553043 7.44792,-8.706649 15.86084,-0.293722 8.41293,8.412926 -4.84676,4.868828 -0.29372,15.860846 4.55305,10.992019 11.42301,-0.890055 11.42301,11.00762 0,11.897674 -6.86996,0.0156 -11.42301,11.007619 -4.55304,10.992018 8.70665,7.44792 0.29372,15.860848 z" />
    <ellipse
       style="fill:none;fill-opacity:1;stroke:#000000;stroke-width:6.22;stroke-dasharray:none;stroke-opacity:1"
       id="path4"
       cx="94.881104"
       cy="68.381859"
       rx="14.678351"
       ry="14.137783" />
  </g>
</svg>
